<svg width="52" height="49" viewBox="0 0 52 49" fill="none" xmlns="http://www.w3.org/2000/svg">
<path d="M17.1609 19.9793V33.4705H20.717V15.4823H17.8939C17.5138 16.9571 16.8895 17.489 14.2834 17.489V19.9793H17.1609Z" fill="#E8E8E8"/>
<path d="M32.8021 19.2293C32.8021 16.8115 31.5805 15.3125 28.133 15.3125H27.59C23.9796 15.3125 22.9209 16.8115 22.9209 19.2293V20.7525C22.9209 22.9285 24.3868 23.5813 24.8483 23.7747C24.3868 23.9439 22.6766 24.6209 22.6766 26.8694V29.5773C22.6766 31.9225 23.7353 33.6875 27.4815 33.6875H28.1873C31.7977 33.6875 33.0735 31.9225 33.0735 29.5773V26.8694C33.0735 24.5725 31.2819 23.9439 30.7933 23.7747C31.2547 23.5813 32.8021 22.9285 32.8021 20.7525V19.2293ZM29.4088 20.9217C29.4088 21.9613 28.9473 22.5174 27.8886 22.5174C26.8028 22.5174 26.3413 21.9613 26.3413 20.8975V19.4469C26.3413 18.3589 26.83 17.8995 27.8615 17.8995C28.9473 17.8995 29.4088 18.3589 29.4088 19.4469V20.9217ZM29.4631 29.263C29.4631 30.3026 28.9745 30.9312 27.8886 30.9312C26.7214 30.9312 26.287 30.3026 26.287 29.263V26.9661C26.287 25.9265 26.7214 25.2979 27.8615 25.2979C29.0016 25.2979 29.4631 25.9748 29.4631 26.9661V29.263Z" fill="#E8E8E8"/>
<path d="M40.528 25.0898V23.8421H38.3333V21.7349H36.7612V23.8421H34.5665V25.0898H36.7612V27.2108H38.3333V25.0898H40.528Z" fill="#E8E8E8"/>
<path d="M51.2642 24.5C51.2642 37.7973 40.0627 48.6024 26.2128 48.6024C12.3628 48.6024 1.16131 37.7973 1.16131 24.5C1.16131 11.2027 12.3628 0.397642 26.2128 0.397642C40.0627 0.397642 51.2642 11.2027 51.2642 24.5Z" stroke="#E8E8E8" stroke-width="0.795284"/>
</svg>
